<svg xmlns="http://www.w3.org/2000/svg" viewBox="0 0 869 334" width="869" height="334">
	<style>
		tspan { white-space:pre }
		.shp0 { fill: #6a198c } 
		.shp1 { fill: #8e44ad } 
	</style>
	<path id="W Dark" fill="#0794b9" d="M333.24 61.97Q363.75 75.8 363.75 96.06Q363.75 104.45 359.46 114.33Q348.5 141.51 343.25 155.34L290.83 287.75Q290.35 289.23 289.4 291.7Q288.92 293.67 285.58 299.6Q282.25 305.53 277.96 309.98Q274.14 314.42 267 318.38Q259.85 321.84 251.27 321.84Q237.92 321.84 227.44 313.44Q217.43 304.54 214.09 295.65L210.28 287.25Q207.42 279.84 195.5 247.23Q183.59 214.13 182.16 210.18Q177.39 222.04 167.86 249.21Q158.81 275.89 154.04 287.75Q153.56 289.23 152.61 291.7Q152.13 293.67 148.8 299.6Q145.46 305.53 141.17 309.98Q136.88 314.42 129.26 318.38Q122.11 321.84 113.53 321.84Q100.18 321.84 90.17 313.44Q80.16 304.54 76.83 295.65L73.02 287.25L4.86 113.84Q0.09 99.02 0.09 94.57Q0.09 74.81 27.26 63.45Q42.51 57.03 53 57.03Q61.58 57.03 67.3 61.47Q73.49 65.42 75.88 69.87Q78.26 73.82 81.12 80.74Q81.59 82.22 96.37 124.22Q111.62 165.72 113.53 171.15L141.65 91.11Q142.12 89.63 143.08 87.66Q144.03 85.68 147.37 80.25Q151.18 74.81 154.99 70.86Q159.28 66.41 166.43 62.95Q173.58 59.5 181.21 59.5Q194.55 59.5 204.56 67.4Q215.04 75.31 218.86 83.21L222.67 91.61Q246.5 160.78 250.79 170.66L279.86 88.64Q291.3 57.03 314.18 57.03Q323.24 57.03 333.24 61.97Z" />
	<path id="O Dark" fill="#0794b9" d="M445.41 128.2Q487.05 128.2 518.47 156.79Q549.88 185.02 549.88 229.01Q549.88 259.43 533.61 283.26Q517.33 306.72 493.86 318.08Q470.77 329.08 446.17 329.08Q420.81 329.08 397.34 317.35Q373.87 305.25 357.59 282.16Q341.69 258.7 341.69 229.37Q341.69 185.38 373.49 156.79Q405.29 128.2 445.41 128.2ZM420.81 255.77Q432.92 264.56 445.41 264.56Q457.9 264.56 470.39 255.4Q482.89 246.23 482.89 228.27Q482.89 210.31 471.15 201.51Q459.42 192.71 445.03 192.71Q432.16 192.71 420.43 201.88Q408.69 211.04 408.69 228.64Q408.69 246.6 420.81 255.77Z" />
	<path id="K Dark" fill="#0794b9" d="M733.19 198.21L695.72 229.01L746.06 269.33Q750.98 273.36 753.25 275.56Q755.9 277.76 758.17 281.43Q760.44 285.09 760.44 288.76Q760.44 297.55 748.71 312.58Q735.84 327.98 724.48 327.98Q716.53 327.98 704.42 318.45L702.91 317.35L699.12 314.78Q690.42 307.82 672.25 290.59Q654.08 272.99 644.61 265.66L644.61 293.89Q644.61 302.32 643.86 306.72Q643.48 310.75 640.45 316.25Q637.8 321.38 630.61 323.58Q623.42 325.78 611.3 325.78Q599.57 325.78 592.38 323.58Q585.19 321.38 582.16 315.88Q579.51 310.38 578.75 306.35Q578.37 301.95 578.37 293.52L578.37 73.94Q578.37 65.51 578.75 61.48Q579.51 57.08 582.16 51.58Q585.19 46.08 592.38 43.89Q599.57 41.69 611.68 41.69Q621.15 41.69 627.58 43.52Q634.39 45.35 637.42 47.92Q640.83 50.48 642.34 55.62Q644.24 60.38 644.24 64.05Q644.61 67.35 644.61 74.31L644.61 190.51Q651.43 185.02 665.06 171.82Q679.06 158.62 685.87 153.12L690.42 150.19Q703.67 140.29 711.24 140.29Q722.59 140.29 734.7 154.59Q747.2 169.99 747.2 178.42Q747.2 186.85 733.19 198.21Z" />
	<path id="I Dark" fill="#0794b9" d="M794.37 302.48L794.37 144.13Q794.37 137.58 794.75 134.44Q795.51 131.03 798.54 126.75Q801.56 122.48 808.76 120.77Q815.95 119.06 828.06 119.06Q837.9 119.06 844.34 120.49Q850.77 121.91 854.18 123.91Q857.59 125.9 859.1 129.89Q860.99 133.59 860.99 136.44Q861.37 139 861.37 144.41L861.37 302.77Q861.37 309.6 860.61 312.73Q860.24 315.87 857.21 320.14Q854.18 324.41 846.99 326.12Q839.8 327.83 827.68 327.83Q817.84 327.83 811.41 326.41Q804.97 324.98 801.56 322.99Q798.16 320.99 796.26 317.29Q794.75 313.3 794.37 310.74Q794.37 307.89 794.37 302.48Z" />
	<path id="W" fill="#38d1f9" d="M324.85 77.89Q353.76 91.52 353.76 111.47Q353.76 119.74 349.69 129.47Q339.3 156.23 334.34 169.86L284.65 300.26Q284.19 301.72 283.29 304.16Q282.84 306.1 279.68 311.94Q276.51 317.78 272.45 322.16Q268.83 326.54 262.06 330.43Q255.28 333.84 247.15 333.84Q234.5 333.84 224.57 325.57Q215.08 316.81 211.92 308.05L208.3 299.78Q205.59 292.48 194.3 260.36Q183.01 227.76 181.65 223.87Q177.13 235.55 168.1 262.31Q159.52 288.58 155 300.26Q154.55 301.72 153.64 304.16Q153.19 306.1 150.03 311.94Q146.87 317.78 142.8 322.16Q138.74 326.54 131.51 330.43Q124.73 333.84 116.6 333.84Q103.95 333.84 94.47 325.57Q84.98 316.81 81.82 308.05L78.2 299.78L13.61 128.98Q9.09 114.39 9.09 110.01Q9.09 90.54 34.84 79.35Q49.29 73.02 59.23 73.02Q67.36 73.02 72.78 77.4Q78.66 81.3 80.91 85.68Q83.17 89.57 85.88 96.38Q86.34 97.84 100.34 139.2Q114.79 180.08 116.6 185.43L143.25 106.6Q143.71 105.14 144.61 103.19Q145.51 101.25 148.67 95.89Q152.29 90.54 155.9 86.65Q159.97 82.27 166.74 78.86Q173.52 75.46 180.75 75.46Q193.4 75.46 202.88 83.24Q212.82 91.03 216.43 98.81L220.05 107.09Q242.63 175.21 246.7 184.94L274.26 104.17Q285.1 73.02 306.78 73.02Q315.36 73.02 324.85 77.89Z" />
	<path id="O" fill="#38d1f9" d="M441.06 135.98Q480.57 135.98 510.38 163.61Q540.18 190.89 540.18 233.4Q540.18 262.8 524.74 285.83Q509.3 308.5 487.03 319.48Q465.12 330.11 441.78 330.11Q417.72 330.11 395.45 318.77Q373.19 307.08 357.74 284.77Q342.66 262.09 342.66 233.75Q342.66 191.24 372.83 163.61Q402.99 135.98 441.06 135.98ZM417.72 259.26Q429.21 267.76 441.06 267.76Q452.91 267.76 464.77 258.91Q476.62 250.05 476.62 232.69Q476.62 215.33 465.48 206.83Q454.35 198.33 440.7 198.33Q428.49 198.33 417.36 207.18Q406.23 216.04 406.23 233.05Q406.23 250.4 417.72 259.26Z" />
	<path id="K" fill="#38d1f9" d="M726.93 203.64L691.38 233.4L739.14 272.37Q743.81 276.26 745.97 278.39Q748.48 280.52 750.64 284.06Q752.79 287.6 752.79 291.14Q752.79 299.64 741.66 314.17Q729.45 329.05 718.67 329.05Q711.13 329.05 699.64 319.84L698.2 318.77L694.61 316.29Q686.35 309.56 669.11 292.91Q651.87 275.91 642.89 268.82L642.89 296.1Q642.89 304.25 642.18 308.5Q641.82 312.4 638.94 317.71Q636.43 322.67 629.61 324.8Q622.78 326.92 611.29 326.92Q600.16 326.92 593.33 324.8Q586.51 322.67 583.64 317.36Q581.12 312.04 580.4 308.15Q580.05 303.9 580.05 295.75L580.05 83.55Q580.05 75.4 580.4 71.51Q581.12 67.25 583.64 61.94Q586.51 56.63 593.33 54.5Q600.16 52.38 611.65 52.38Q620.63 52.38 626.73 54.15Q633.2 55.92 636.07 58.4Q639.3 60.88 640.74 65.84Q642.54 70.44 642.54 73.99Q642.89 77.17 642.89 83.9L642.89 196.2Q649.36 190.89 662.29 178.14Q675.58 165.38 682.04 160.07L686.35 157.24Q698.92 147.67 706.1 147.67Q716.88 147.67 728.37 161.49Q740.22 176.36 740.22 184.51Q740.22 192.66 726.93 203.64Z" />
	<path id="I" fill="#38d1f9" d="M793.05 302.93L793.05 152.93Q793.05 146.73 793.4 143.76Q794.12 140.52 797 136.48Q799.87 132.43 806.69 130.81Q813.52 129.19 825.01 129.19Q834.35 129.19 840.45 130.54Q846.56 131.89 849.79 133.78Q853.02 135.67 854.46 139.45Q856.25 142.95 856.25 145.65Q856.61 148.08 856.61 153.2L856.61 303.2Q856.61 309.68 855.89 312.64Q855.54 315.61 852.66 319.66Q849.79 323.7 842.97 325.32Q836.14 326.94 824.65 326.94Q815.31 326.94 809.21 325.59Q803.1 324.24 799.87 322.35Q796.64 320.47 794.84 316.96Q793.4 313.18 793.05 310.75Q793.05 308.06 793.05 302.93Z" />
	<path id="Shape 1 copy" class="shp0" d="M827 84C803.77 84 785 65.23 785 42C785 18.77 803.77 0 827 0C850.23 0 869 18.77 869 42C869 65.23 850.23 84 827 84Z" />
	<path id="Shape 1 copy 2" class="shp1" d="M824 83C802.99 83 786 66.01 786 45C786 23.99 802.99 7 824 7C845.01 7 862 23.99 862 45C862 66.01 845.01 83 824 83Z" />
</svg>