<svg xmlns="http://www.w3.org/2000/svg" viewBox="0 0 579 473" width="579" height="473">
	<style>
		tspan { white-space:pre }
	</style>
	<path id="W top copy" fill="#fc427b" d="M530.08 7.19Q578.6 26.66 578.6 55.18Q578.6 67 571.77 80.91Q554.34 119.17 546 138.64L462.6 325.04Q461.85 327.13 460.33 330.61Q459.57 333.39 454.27 341.74Q448.96 350.08 442.14 356.34Q436.07 362.6 424.7 368.17Q413.33 373.03 399.68 373.03Q378.45 373.03 361.77 361.21Q345.85 348.69 340.55 336.17L334.48 324.35Q329.93 313.91 310.98 268.01Q292.03 221.41 289.75 215.85Q282.17 232.54 267.01 270.79Q252.6 308.35 245.02 325.04Q244.27 327.13 242.75 330.61Q241.99 333.39 236.68 341.74Q231.38 350.08 224.55 356.34Q217.73 362.6 205.6 368.17Q194.23 373.03 180.58 373.03Q159.36 373.03 143.44 361.21Q127.51 348.69 122.21 336.17L116.14 324.35L7.73 80.22Q0.15 59.35 0.15 53.09Q0.15 25.27 43.36 9.27Q67.62 0.23 84.3 0.23Q97.95 0.23 107.05 6.49Q116.9 12.06 120.69 18.32Q124.48 23.88 129.03 33.62Q129.79 35.7 153.29 94.82Q177.55 153.25 180.58 160.9L225.31 48.22Q226.07 46.14 227.59 43.35Q229.1 40.57 234.41 32.92Q240.47 25.27 246.54 19.71Q253.36 13.45 264.73 8.58Q276.11 3.71 288.24 3.71Q309.46 3.71 325.38 14.84Q342.06 25.97 348.13 37.09L354.19 48.92Q392.1 146.29 398.92 160.2L445.17 44.75Q463.36 0.23 499.75 0.23Q514.16 0.23 530.08 7.19Z" />
	<path id="W middle copy" fill="#000000" d="M530.08 75.84Q578.6 95.32 578.6 123.83Q578.6 135.66 571.77 149.57Q554.34 187.82 546 207.3L462.6 393.7Q461.85 395.78 460.33 399.26Q459.57 402.04 454.27 410.39Q448.96 418.74 442.14 425Q436.07 431.26 424.7 436.82Q413.33 441.69 399.68 441.69Q378.45 441.69 361.77 429.86Q345.85 417.34 340.55 404.83L334.48 393Q329.93 382.57 310.98 336.66Q292.03 290.06 289.75 284.5Q282.17 301.19 267.01 339.45Q252.6 377 245.02 393.7Q244.27 395.78 242.75 399.26Q241.99 402.04 236.68 410.39Q231.38 418.74 224.55 425Q217.73 431.26 205.6 436.82Q194.23 441.69 180.58 441.69Q159.36 441.69 143.44 429.86Q127.51 417.34 122.21 404.83L116.14 393L7.73 148.87Q0.15 128.01 0.15 121.75Q0.15 93.92 43.36 77.93Q67.62 68.89 84.3 68.89Q97.95 68.89 107.05 75.14Q116.9 80.71 120.69 86.97Q124.48 92.53 129.03 102.27Q129.79 104.36 153.29 163.48Q177.55 221.9 180.58 229.55L225.31 116.88Q226.07 114.79 227.59 112.01Q229.1 109.23 234.41 101.57Q240.47 93.92 246.54 88.36Q253.36 82.1 264.73 77.23Q276.11 72.36 288.24 72.36Q309.46 72.36 325.38 83.49Q342.06 94.62 348.13 105.75L354.19 117.57Q392.1 214.95 398.92 228.86L445.17 113.4Q463.36 68.89 499.75 68.89Q514.16 68.89 530.08 75.84Z" />
	<path id="W bottom copy" fill="#38d1f9" d="M530.08 106.92Q578.6 126.4 578.6 154.91Q578.6 166.74 571.77 180.65Q554.34 218.9 546 238.38L462.6 424.78Q461.85 426.86 460.33 430.34Q459.57 433.12 454.27 441.47Q448.96 449.82 442.14 456.08Q436.07 462.34 424.7 467.9Q413.33 472.77 399.68 472.77Q378.45 472.77 361.77 460.94Q345.85 448.42 340.55 435.91L334.48 424.08Q329.93 413.65 310.98 367.74Q292.03 321.14 289.75 315.58Q282.17 332.27 267.01 370.53Q252.6 408.08 245.02 424.78Q244.27 426.86 242.75 430.34Q241.99 433.12 236.68 441.47Q231.38 449.82 224.55 456.08Q217.73 462.34 205.6 467.9Q194.23 472.77 180.58 472.77Q159.36 472.77 143.44 460.94Q127.51 448.42 122.21 435.91L116.14 424.08L7.73 179.95Q0.15 159.09 0.15 152.83Q0.15 125 43.36 109.01Q67.62 99.97 84.3 99.97Q97.95 99.97 107.05 106.23Q116.9 111.79 120.69 118.05Q124.48 123.61 129.03 133.35Q129.79 135.44 153.29 194.56Q177.55 252.98 180.58 260.63L225.31 147.96Q226.07 145.87 227.59 143.09Q229.1 140.31 234.41 132.66Q240.47 125 246.54 119.44Q253.36 113.18 264.73 108.31Q276.11 103.44 288.24 103.44Q309.46 103.44 325.38 114.57Q342.06 125.7 348.13 136.83L354.19 148.65Q392.1 246.03 398.92 259.94L445.17 144.48Q463.36 99.97 499.75 99.97Q514.16 99.97 530.08 106.92Z" />
</svg>