<?xml version="1.0" ?><svg data-name="Design Convert" id="Design_Convert" viewBox="0 0 64 64" xmlns="http://www.w3.org/2000/svg"><defs><style>.cls-1{fill:#010101;}</style></defs><title/><path class="cls-1" d="M8,57a1,1,0,0,1-.71-.29,1,1,0,0,1-.26-1l4.32-17.27a1,1,0,0,1,1.91-.07A6.37,6.37,0,0,0,16.63,42a4.8,4.8,0,0,0,3.92.12,1,1,0,0,1,1.11.21,1,1,0,0,1,.21,1.11A4.8,4.8,0,0,0,22,47.37a6.34,6.34,0,0,0,3.59,3.37,1,1,0,0,1,.68,1,1,1,0,0,1-.75.93L8.24,57A1,1,0,0,1,8,57Zm4.68-15.59L9.37,54.63l13.22-3.31a8.55,8.55,0,0,1-2.42-3.13,7.06,7.06,0,0,1-.62-3.74,7.06,7.06,0,0,1-3.74-.62A8.55,8.55,0,0,1,12.68,41.41Z"/><path class="cls-1" d="M25.26,52.68a.84.84,0,0,1-.31,0,8.3,8.3,0,0,1-4.78-4.44,7.06,7.06,0,0,1-.62-3.74,7.06,7.06,0,0,1-3.74-.62,8.3,8.3,0,0,1-4.44-4.78,1,1,0,0,1,.24-1L36.43,13.21a1,1,0,0,1,1.41,0l6.47,6.48h0l6.48,6.47a1,1,0,0,1,0,1.41L26,52.39A1,1,0,0,1,25.26,52.68ZM21,42.05a1,1,0,0,1,.92,1.4A4.8,4.8,0,0,0,22,47.37a6.43,6.43,0,0,0,3,3.14L48.67,26.87,37.13,15.33,13.49,39a6.43,6.43,0,0,0,3.14,3,4.8,4.8,0,0,0,3.92.12A1.1,1.1,0,0,1,21,42.05Z"/><path class="cls-1" d="M50.08,27.87a1,1,0,0,1-.71-.3L36.43,14.63a1,1,0,0,1,0-1.42L39.66,10a1,1,0,0,1,1.42,0l6.47,6.48h0L54,22.92a1,1,0,0,1,0,1.42l-3.24,3.23A1,1,0,0,1,50.08,27.87ZM38.55,13.92,50.08,25.45l1.82-1.82L40.37,12.1Z"/><path class="cls-1" d="M53.32,24.63a1,1,0,0,1-.71-.29l-13-12.95a1,1,0,0,1-.29-.71,1.05,1.05,0,0,1,.29-.71A10.16,10.16,0,0,1,54,24.34,1,1,0,0,1,53.32,24.63ZM41.83,10.72,53.28,22.17A8.16,8.16,0,0,0,41.83,10.72Z"/><path class="cls-1" d="M29.58,30a1,1,0,0,1-.71-.29,1,1,0,0,1,0-1.41l7.56-7.56a1,1,0,0,1,1.41,0,1,1,0,0,1,0,1.42l-7.55,7.55A1,1,0,0,1,29.58,30Z"/></svg>